<svg width="14" height="21" viewBox="0 0 14 21" fill="none" xmlns="http://www.w3.org/2000/svg">
<path d="M6.66654 0.375977C3.00773 0.375977 0 3.22909 0 7.29905C0 8.75138 0.34215 9.76173 0.977637 10.8809L6.21792 20.1116V20.1114C6.30824 20.2747 6.48012 20.376 6.66667 20.376C6.85321 20.376 7.02509 20.2747 7.11541 20.1114L12.3557 10.8807C12.9912 9.76173 13.3333 8.75138 13.3333 7.29905C13.3333 3.22914 10.3256 0.375981 6.6668 0.375981L6.66654 0.375977ZM6.66654 1.40153C9.80489 1.40153 12.3075 3.72185 12.3075 7.29896C12.3075 8.60266 12.0546 9.3397 11.4661 10.3758L6.66677 18.8213L1.86741 10.3758C1.27896 9.3397 1.02608 8.60248 1.02608 7.29896C1.02608 3.72181 3.5286 1.40153 6.667 1.40153H6.66654ZM6.66654 3.45285C4.69002 3.45285 3.07696 5.06613 3.07696 7.0425C3.07696 9.01887 4.6902 10.6321 6.66654 10.6321C8.64306 10.6321 10.2561 9.01887 10.2561 7.0425C10.2561 5.06594 8.64287 3.45285 6.66654 3.45285ZM6.66654 4.4784C8.08876 4.4784 9.23059 5.62039 9.23059 7.0425C9.23059 8.46461 8.08863 9.6066 6.66654 9.6066C5.24445 9.6066 4.10249 8.46461 4.10249 7.0425C4.10249 5.62039 5.24431 4.4784 6.66654 4.4784Z" fill="#FD7533"/>
</svg>
