<svg width="190" height="58" viewBox="0 0 190 58" fill="none" xmlns="http://www.w3.org/2000/svg">
<path d="M56.4416 28.7031C56.4416 30.0812 56.3467 31.4286 56.1568 32.7453C56.0963 33.1578 56.0316 33.566 55.9625 33.9698C55.9021 34.3121 55.8331 34.6544 55.7554 34.9968C53.0362 47.3734 42.4445 56.7348 29.5998 57.3536C29.4272 57.3712 29.2545 57.38 29.0819 57.38C28.797 57.3887 28.5078 57.3931 28.2143 57.3931C28.1625 57.3931 28.1108 57.3931 28.059 57.3931C27.8259 57.3931 27.5885 57.3887 27.3468 57.38C27.1742 57.3712 27.0058 57.3624 26.8418 57.3536C19.5908 57.0113 13.0648 53.8776 8.26101 48.9928C4.5578 45.214 1.86456 40.3951 0.68626 34.9968C0.522248 34.2594 0.388449 33.5089 0.284863 32.7453C0.0906381 31.4286 0 30.0725 0 28.7031C0 20.7769 3.15938 13.6011 8.26101 8.41344C13.3756 3.21265 20.4195 0 28.2143 0C36.0092 0 43.066 3.21265 48.1677 8.41344C53.2822 13.6011 56.4416 20.7769 56.4416 28.7031Z" fill="#FD7533"/>
<path d="M29.0819 57.38C28.7971 57.3888 28.5079 57.3932 28.2144 57.3932C28.1626 57.3932 28.1108 57.3932 28.059 57.3932C27.8259 57.3932 27.5886 57.3888 27.3469 57.38C27.1742 57.3713 27.0059 57.3625 26.8419 57.3537C24.3429 44.8849 12.9483 35.247 0.686309 34.9968C0.522298 34.2595 0.388498 33.509 0.284912 32.7454C6.62958 32.7717 12.9742 35.1285 18.296 39.4735C23.0221 43.3313 26.4664 48.3609 28.2144 53.8909C28.5769 55.0364 28.8748 56.195 29.0819 57.38Z" fill="white"/>
<path d="M56.1568 32.7454C56.0964 33.1579 56.0317 33.5661 55.9626 33.9699C55.9022 34.3122 55.8331 34.6545 55.7554 34.9968C43.4934 35.247 32.0859 44.8849 29.5999 57.3537C29.4272 57.3713 29.2546 57.38 29.0819 57.38C28.7971 57.3888 28.5079 57.3932 28.2144 57.3932C28.1626 57.3932 28.1108 57.3932 28.059 57.3932C27.8259 57.3932 27.5886 57.3888 27.3469 57.38C27.567 56.195 27.8518 55.0364 28.2144 53.8909C29.9754 48.3609 33.4067 43.3313 38.1328 39.4735C43.4545 35.1285 49.7992 32.7717 56.1568 32.7454Z" fill="white"/>
<path d="M20.3933 18.5518V21.1192L10.4619 26.9652C10.1253 27.1627 9.91812 27.5314 9.91812 27.9264V34.5887V36.9718C9.20165 36.6734 8.47654 36.41 7.74281 36.1818L7.72986 33.8513V26.6492C7.72986 26.2542 7.93703 25.8855 8.27369 25.688L20.3933 18.5518Z" fill="white"/>
<path d="M48.3744 26.6493V33.9435V36.2872C47.632 36.5242 46.9069 36.8007 46.1991 37.1167V34.7072V27.9264C46.1991 27.5314 45.9919 27.1628 45.6552 26.9653L35.8016 21.1588V18.5913L47.8305 25.6881C48.1672 25.8856 48.3744 26.2543 48.3744 26.6493Z" fill="white"/>
<path d="M32.6813 29.4535V13.1138C32.6813 12.7188 32.4741 12.3501 32.1245 12.1526L28.5896 10.0855C28.253 9.888 27.8386 9.888 27.502 10.0855L23.9671 12.179C23.6304 12.3765 23.4232 12.7451 23.4232 13.1401V13.759V16.3265L23.4362 29.5457C22.6722 29.8354 21.9471 30.1909 21.2609 30.6122L21.2479 17.6036V15.0361V11.863C21.2479 11.468 21.4551 11.0993 21.7918 10.9018L27.489 7.53118C27.8257 7.33368 28.24 7.33368 28.5896 7.53118L34.3128 10.8623C34.6494 11.0598 34.8566 11.4285 34.8566 11.8235L34.8695 30.4542C34.1703 30.0592 33.4452 29.7169 32.6813 29.4535Z" fill="white"/>
<path d="M39.9713 38.0776C38.2104 33.206 33.5878 29.73 28.2013 29.73C22.8019 29.73 18.2052 33.1928 16.4184 38.0513C16.1594 38.7754 15.9522 39.5391 15.8228 40.3159C16.522 40.8338 17.1953 41.3824 17.8427 41.9617C17.8945 41.0927 18.0369 40.2501 18.2829 39.4601C19.5648 35.1283 23.527 31.9683 28.2013 31.9683C32.8757 31.9683 36.8508 35.1414 38.1197 39.4864C38.3528 40.2896 38.5082 41.1322 38.547 42.0012C39.1944 41.4219 39.8721 40.8733 40.5799 40.3554C40.4504 39.5654 40.2432 38.8018 39.9713 38.0776Z" fill="white"/>
<path d="M73.2108 38.3723V16.4723H78.0108V38.3723H73.2108ZM77.4108 38.3723V34.2923H86.9808V38.3723H77.4108ZM77.4108 29.2823V25.2023H86.2908V29.2823H77.4108ZM77.4108 20.5523V16.4723H86.7708V20.5523H77.4108ZM90.7533 38.3723V21.9323H94.5633V28.9823H94.2933C94.2933 27.3023 94.5033 25.9023 94.9233 24.7823C95.3633 23.6623 96.0233 22.8223 96.9033 22.2623C97.7833 21.7023 98.8533 21.4223 100.113 21.4223H100.323C102.243 21.4223 103.703 22.0523 104.703 23.3123C105.723 24.5523 106.233 26.4423 106.233 28.9823V38.3723H101.433V28.7123C101.433 27.8323 101.173 27.1123 100.653 26.5523C100.133 25.9923 99.4333 25.7123 98.5533 25.7123C97.6533 25.7123 96.9233 26.0023 96.3633 26.5823C95.8233 27.1423 95.5533 27.8823 95.5533 28.8023V38.3723H90.7533ZM117.704 38.9423C116.284 38.9423 115.044 38.7123 113.984 38.2523C112.944 37.7723 112.074 37.1323 111.374 36.3323C110.674 35.5323 110.154 34.6323 109.814 33.6323C109.474 32.6123 109.304 31.5623 109.304 30.4823V29.9123C109.304 28.7923 109.484 27.7223 109.844 26.7023C110.204 25.6623 110.734 24.7423 111.434 23.9423C112.134 23.1423 113.004 22.5123 114.044 22.0523C115.104 21.5923 116.314 21.3623 117.674 21.3623C119.154 21.3623 120.464 21.6523 121.604 22.2323C122.744 22.7923 123.654 23.5823 124.334 24.6023C125.014 25.6223 125.394 26.7923 125.474 28.1123H120.764C120.684 27.3723 120.384 26.7523 119.864 26.2523C119.364 25.7323 118.634 25.4723 117.674 25.4723C116.874 25.4723 116.204 25.6723 115.664 26.0723C115.144 26.4723 114.754 27.0223 114.494 27.7223C114.234 28.4223 114.104 29.2523 114.104 30.2123C114.104 31.0923 114.224 31.8923 114.464 32.6123C114.704 33.3123 115.084 33.8623 115.604 34.2623C116.144 34.6423 116.844 34.8323 117.704 34.8323C118.344 34.8323 118.884 34.7223 119.324 34.5023C119.784 34.2623 120.144 33.9423 120.404 33.5423C120.684 33.1223 120.854 32.6423 120.914 32.1023H125.594C125.534 33.4623 125.154 34.6623 124.454 35.7023C123.754 36.7223 122.824 37.5223 121.664 38.1023C120.504 38.6623 119.184 38.9423 117.704 38.9423ZM128.873 38.3723V16.4723H133.703V38.3723H128.873ZM126.923 20.0123V16.4723H133.703V20.0123H126.923ZM148.056 38.3723V33.5123H147.246V28.2323C147.246 27.3923 147.046 26.7623 146.646 26.3423C146.246 25.9223 145.606 25.7123 144.726 25.7123C144.286 25.7123 143.706 25.7223 142.986 25.7423C142.266 25.7623 141.526 25.7923 140.766 25.8323C140.006 25.8723 139.316 25.9123 138.696 25.9523V21.9023C139.156 21.8623 139.696 21.8223 140.316 21.7823C140.936 21.7423 141.576 21.7123 142.236 21.6923C142.896 21.6723 143.516 21.6623 144.096 21.6623C145.776 21.6623 147.186 21.9023 148.326 22.3823C149.486 22.8623 150.366 23.5923 150.966 24.5723C151.566 25.5323 151.866 26.7723 151.866 28.2923V38.3723H148.056ZM142.806 38.7923C141.626 38.7923 140.586 38.5823 139.686 38.1623C138.806 37.7423 138.116 37.1423 137.616 36.3623C137.116 35.5623 136.866 34.6123 136.866 33.5123C136.866 32.3123 137.176 31.3323 137.796 30.5723C138.416 29.7923 139.286 29.2223 140.406 28.8623C141.526 28.4823 142.816 28.2923 144.276 28.2923H147.786V30.9623H144.246C143.406 30.9623 142.756 31.1723 142.296 31.5923C141.856 31.9923 141.636 32.5423 141.636 33.2423C141.636 33.9023 141.856 34.4423 142.296 34.8623C142.756 35.2623 143.406 35.4623 144.246 35.4623C144.786 35.4623 145.266 35.3723 145.686 35.1923C146.126 34.9923 146.486 34.6623 146.766 34.2023C147.046 33.7423 147.206 33.1023 147.246 32.2823L148.386 33.4823C148.286 34.6223 148.006 35.5823 147.546 36.3623C147.106 37.1423 146.486 37.7423 145.686 38.1623C144.906 38.5823 143.946 38.7923 142.806 38.7923ZM158.826 38.3723L153.906 21.9323H158.856L163.476 38.3723H158.826ZM160.326 38.3723V34.3823H165.156V38.3723H160.326ZM162.096 38.3723L166.086 21.9323H170.706L166.446 38.3723H162.096ZM180.695 38.9423C179.295 38.9423 178.055 38.7023 176.975 38.2223C175.915 37.7423 175.025 37.1023 174.305 36.3023C173.605 35.4823 173.065 34.5723 172.685 33.5723C172.325 32.5523 172.145 31.5123 172.145 30.4523V29.8523C172.145 28.7523 172.325 27.7023 172.685 26.7023C173.065 25.6823 173.605 24.7723 174.305 23.9723C175.005 23.1723 175.875 22.5423 176.915 22.0823C177.975 21.6023 179.175 21.3623 180.515 21.3623C182.275 21.3623 183.755 21.7623 184.955 22.5623C186.175 23.3423 187.105 24.3723 187.745 25.6523C188.385 26.9123 188.705 28.2923 188.705 29.7923V31.4123H174.155V28.6823H185.795L184.235 29.9423C184.235 28.9623 184.095 28.1223 183.815 27.4223C183.535 26.7223 183.115 26.1923 182.555 25.8323C182.015 25.4523 181.335 25.2623 180.515 25.2623C179.675 25.2623 178.965 25.4523 178.385 25.8323C177.805 26.2123 177.365 26.7723 177.065 27.5123C176.765 28.2323 176.615 29.1223 176.615 30.1823C176.615 31.1623 176.755 32.0223 177.035 32.7623C177.315 33.4823 177.755 34.0423 178.355 34.4423C178.955 34.8423 179.735 35.0423 180.695 35.0423C181.575 35.0423 182.295 34.8723 182.855 34.5323C183.415 34.1923 183.795 33.7723 183.995 33.2723H188.405C188.165 34.3723 187.695 35.3523 186.995 36.2123C186.295 37.0723 185.415 37.7423 184.355 38.2223C183.295 38.7023 182.075 38.9423 180.695 38.9423Z" fill="white"/>
</svg>
