<svg width="52" height="43" viewBox="0 0 52 43" fill="none" xmlns="http://www.w3.org/2000/svg">
<path d="M45.5943 35.466C45.2789 35.2355 44.9201 35.0736 44.5404 34.9904C44.3353 34.948 44.1363 34.8792 43.9483 34.7857C43.8977 34.7575 43.8549 34.7168 43.8239 34.6674C43.7929 34.6179 43.7746 34.5613 43.7707 34.5027C43.7748 34.427 43.795 34.353 43.8299 34.286C43.8893 34.2112 43.9655 34.1519 44.052 34.1132C44.1385 34.0744 44.2329 34.0573 44.3273 34.0633C44.4677 34.0713 44.6067 34.0955 44.7417 34.1355C44.8842 34.2063 45.0392 34.2472 45.1976 34.2559C45.2999 34.2587 45.4007 34.2296 45.4864 34.1726C45.5721 34.1156 45.6386 34.0333 45.6771 33.9368C45.7168 33.8674 45.7372 33.7883 45.7363 33.7081C45.7272 33.6046 45.6918 33.5053 45.6337 33.4199C45.5756 33.3344 45.4967 33.2657 45.4048 33.2204C45.1768 33.0847 44.922 33.0025 44.6588 32.9796V32.6003C44.6639 32.5442 44.6639 32.4878 44.6588 32.4317C44.6347 32.3552 44.5873 32.2884 44.5235 32.241C44.4596 32.1936 44.3826 32.1681 44.3036 32.1681C44.2245 32.1681 44.1475 32.1936 44.0837 32.241C44.0198 32.2884 43.9724 32.3552 43.9483 32.4317C43.9248 32.4994 43.9128 32.5707 43.9128 32.6424C43.9128 32.7689 43.9128 32.8953 43.9128 33.0217C43.5275 33.1003 43.1746 33.2954 42.9004 33.5816C42.657 33.8581 42.5221 34.216 42.5215 34.587C42.5193 34.8093 42.5725 35.0285 42.676 35.2243C42.7795 35.4201 42.93 35.5861 43.1135 35.7068C43.2701 35.795 43.4347 35.8676 43.6049 35.9236L44.3095 36.1343C44.5016 36.1643 44.6752 36.2676 44.795 36.4232C44.8352 36.4949 44.8576 36.5755 44.8601 36.658C44.8584 36.7629 44.8231 36.8644 44.7595 36.947C44.6949 37.028 44.6107 37.0906 44.5153 37.1286C44.4198 37.1665 44.3162 37.1787 44.2148 37.1637C44.0581 37.1645 43.9022 37.1401 43.753 37.0915C43.5285 36.9931 43.2912 36.9283 43.0484 36.8989C42.9798 36.8964 42.9115 36.9082 42.8476 36.9335C42.7836 36.9589 42.7255 36.9973 42.6767 37.0464C42.6279 37.0954 42.5895 37.1541 42.5638 37.2188C42.5381 37.2835 42.5257 37.3529 42.5274 37.4226C42.5274 37.8501 42.9478 38.0247 43.2793 38.1451C43.4899 38.1966 43.7035 38.2348 43.9187 38.2595C43.9187 38.3919 43.9187 38.5183 43.9187 38.6448C43.9086 38.7045 43.9086 38.7656 43.9187 38.8254C43.9452 38.9015 43.9918 38.9688 44.0535 39.0198C44.1151 39.0708 44.1893 39.1035 44.268 39.1143C44.3473 39.1083 44.4232 39.079 44.4863 39.0298C44.5494 38.9806 44.597 38.9137 44.6233 38.8374C44.6399 38.7662 44.6399 38.6919 44.6233 38.6207V38.2294C44.8282 38.1835 45.027 38.1128 45.2153 38.0186C45.4137 37.9076 45.5862 37.7545 45.7211 37.5695C45.8559 37.3846 45.95 37.1723 45.9969 36.947C46.0195 36.832 46.0313 36.7151 46.0324 36.5978C46.0444 36.3827 46.0087 36.1676 45.9277 35.9686C45.8467 35.7695 45.7226 35.5915 45.5646 35.4479L45.5943 35.466ZM51.4556 35.6647C51.459 37.2642 50.9441 38.8202 49.9906 40.0924C49.0371 41.3645 47.6981 42.2818 46.1805 42.7026C44.663 43.1233 43.0513 43.024 41.5948 42.42C40.1383 41.8161 38.918 40.7411 38.1225 39.3612H3.85429C2.83255 39.3596 1.8531 38.9462 1.13062 38.2115C0.408144 37.4768 0.00156589 36.4809 0 35.4419V8.22383C0.00156589 7.18486 0.408144 6.18891 1.13062 5.45425C1.8531 4.71959 2.83255 4.30616 3.85429 4.30456H9.52026V2.13723C9.52026 1.5704 9.7417 1.02679 10.1359 0.625981C10.53 0.225172 11.0646 0 11.6221 0C12.1795 0 12.7141 0.225172 13.1083 0.625981C13.5024 1.02679 13.7239 1.5704 13.7239 2.13723V4.28048H31.9118V2.13723C31.9118 1.85657 31.9662 1.57865 32.0718 1.31935C32.1774 1.06005 32.3323 0.824441 32.5274 0.625981C32.7226 0.42752 32.9543 0.270093 33.2093 0.162687C33.4643 0.055281 33.7376 0 34.0136 0C34.2896 0 34.563 0.055281 34.818 0.162687C35.073 0.270093 35.3047 0.42752 35.4998 0.625981C35.695 0.824441 35.8498 1.06005 35.9554 1.31935C36.0611 1.57865 36.1154 1.85657 36.1154 2.13723V4.28048H41.7873C42.2953 4.28127 42.798 4.38398 43.2669 4.58273C43.7357 4.78147 44.1613 5.07235 44.5194 5.43868C44.8774 5.80501 45.1609 6.2396 45.3535 6.71753C45.546 7.19546 45.644 7.70734 45.6416 8.22383V23.8768L48.6966 19.4759C48.7995 19.3504 48.945 19.2688 49.1042 19.2475C49.2635 19.2261 49.4249 19.2665 49.5562 19.3605C49.6875 19.4546 49.7792 19.5955 49.813 19.7552C49.8468 19.9149 49.8203 20.0817 49.7387 20.2224L45.4581 26.3873C45.398 26.4706 45.3196 26.5386 45.2292 26.5856C45.1387 26.6326 45.0387 26.6575 44.9371 26.6582C44.8353 26.6585 44.7349 26.634 44.6443 26.5869C44.5537 26.5398 44.4754 26.4713 44.4161 26.3873L40.1355 20.2224C40.0873 20.1532 40.053 20.0751 40.0345 19.9924C40.016 19.9098 40.0136 19.8242 40.0277 19.7406C40.0417 19.657 40.0718 19.5771 40.1162 19.5053C40.1606 19.4336 40.2184 19.3714 40.2865 19.3224C40.3545 19.2734 40.4314 19.2385 40.5127 19.2196C40.594 19.2008 40.6781 19.1985 40.7603 19.2127C40.8425 19.227 40.9211 19.2576 40.9917 19.3027C41.0623 19.3479 41.1234 19.4067 41.1716 19.4759L44.2325 23.8768V13.6422H1.40317V35.4239C1.40474 36.0839 1.66367 36.7163 2.12318 37.1824C2.58268 37.6485 3.20524 37.9103 3.85429 37.9103H37.4476C37.2114 37.1798 37.0915 36.4156 37.0923 35.6466C37.0648 34.672 37.2298 33.7016 37.5775 32.7929C37.9253 31.8843 38.4488 31.0558 39.117 30.3565C39.7853 29.6571 40.5846 29.1013 41.4679 28.7217C42.3511 28.3421 43.3003 28.1465 44.2592 28.1465C45.2181 28.1465 46.1672 28.3421 47.0505 28.7217C47.9337 29.1013 48.7331 29.6571 49.4013 30.3565C50.0695 31.0558 50.593 31.8843 50.9408 32.7929C51.2886 33.7016 51.4536 34.672 51.426 35.6466L51.4556 35.6647ZM33.3209 7.85056C33.3369 8.02691 33.4172 8.19082 33.5459 8.31016C33.6745 8.42949 33.8424 8.49564 34.0166 8.49564C34.1908 8.49564 34.3586 8.42949 34.4873 8.31016C34.616 8.19082 34.6962 8.02691 34.7123 7.85056V2.13723C34.7091 1.94827 34.6327 1.76822 34.4997 1.63629C34.3666 1.50436 34.1876 1.43123 34.0018 1.43285C33.8181 1.43285 33.6419 1.50706 33.512 1.63916C33.3821 1.77125 33.3091 1.95042 33.3091 2.13723L33.3209 7.85056ZM10.9116 7.85056C10.9276 8.02691 11.0078 8.19082 11.1365 8.31016C11.2652 8.42949 11.4331 8.49564 11.6073 8.49564C11.7814 8.49564 11.9493 8.42949 12.078 8.31016C12.2067 8.19082 12.2869 8.02691 12.3029 7.85056V2.13723C12.2869 1.96088 12.2067 1.79697 12.078 1.67764C11.9493 1.55831 11.7814 1.49216 11.6073 1.49216C11.4331 1.49216 11.2652 1.55831 11.1365 1.67764C11.0078 1.79697 10.9276 1.96088 10.9116 2.13723V7.85056ZM1.40317 12.2033H44.2325V8.22383C44.2325 7.56439 43.9749 6.93196 43.5163 6.46567C43.0578 5.99937 42.4358 5.73741 41.7873 5.73741H36.1154V7.87465C36.1154 8.44147 35.894 8.98509 35.4998 9.3859C35.1057 9.78671 34.5711 10.0119 34.0136 10.0119C33.4562 10.0119 32.9216 9.78671 32.5274 9.3859C32.1333 8.98509 31.9118 8.44147 31.9118 7.87465V5.71333H13.7239V7.85056C13.7239 8.41739 13.5024 8.96101 13.1083 9.36181C12.7141 9.76262 12.1795 9.9878 11.6221 9.9878C11.0646 9.9878 10.53 9.76262 10.1359 9.36181C9.7417 8.96101 9.52026 8.41739 9.52026 7.85056V5.71333H3.85429C3.5309 5.71332 3.21071 5.77839 2.91217 5.90477C2.61362 6.03115 2.34262 6.21636 2.11478 6.44972C1.88694 6.68308 1.70676 6.95998 1.58463 7.26447C1.4625 7.56895 1.40083 7.895 1.40317 8.22383V12.2033ZM50.0228 35.6466C50.024 34.4866 49.6868 33.3523 49.0539 32.3872C48.4209 31.4221 47.5207 30.6696 46.4671 30.2248C45.4135 29.7801 44.2538 29.6631 43.1348 29.8887C42.0158 30.1143 40.9878 30.6723 40.1807 31.4921C39.3736 32.3119 38.8238 33.3568 38.6008 34.4944C38.3778 35.632 38.4917 36.8114 38.928 37.8832C39.3643 38.955 40.1034 39.8712 41.0518 40.5158C42.0003 41.1604 43.1154 41.5044 44.2562 41.5044C45.7841 41.5028 47.2491 40.8854 48.33 39.7873C49.411 38.6893 50.0197 37.2003 50.0228 35.6466Z" fill="white"/>
<path d="M37.5539 24.8039C37.5539 24.8977 37.5356 24.9906 37.5001 25.0772C37.4646 25.1638 37.4127 25.2423 37.3472 25.3084C37.2816 25.3744 37.2039 25.4266 37.1185 25.462C37.033 25.4973 36.9416 25.5151 36.8493 25.5143H31.4438C31.3463 25.5234 31.2479 25.5118 31.1551 25.4801C31.0622 25.4484 30.9769 25.3973 30.9045 25.3302C30.8321 25.263 30.7743 25.1813 30.7348 25.0902C30.6952 24.999 30.6748 24.9005 30.6748 24.8009C30.6748 24.7013 30.6952 24.6028 30.7348 24.5116C30.7743 24.4205 30.8321 24.3388 30.9045 24.2716C30.9769 24.2045 31.0622 24.1534 31.1551 24.1217C31.2479 24.09 31.3463 24.0784 31.4438 24.0875H36.8197C36.9147 24.0834 37.0095 24.099 37.0984 24.1331C37.1874 24.1673 37.2686 24.2194 37.3372 24.2864C37.4057 24.3533 37.4603 24.4337 37.4975 24.5226C37.5348 24.6116 37.5539 24.7072 37.5539 24.8039ZM36.8493 30.1681H31.4438C31.3513 30.1681 31.2597 30.1866 31.1742 30.2226C31.0887 30.2586 31.0111 30.3114 30.9457 30.3779C30.8802 30.4444 30.8283 30.5234 30.7929 30.6103C30.7575 30.6972 30.7393 30.7904 30.7393 30.8845C30.7393 30.9786 30.7575 31.0717 30.7929 31.1587C30.8283 31.2456 30.8802 31.3246 30.9457 31.3911C31.0111 31.4576 31.0887 31.5104 31.1742 31.5464C31.2597 31.5824 31.3513 31.6009 31.4438 31.6009H36.8197C37.0066 31.6009 37.1858 31.5254 37.3179 31.3911C37.45 31.2567 37.5243 31.0745 37.5243 30.8845C37.5243 30.6945 37.45 30.5123 37.3179 30.3779C37.1858 30.2435 37.0066 30.1681 36.8197 30.1681H36.8493ZM25.5351 30.1681H20.1296C19.9428 30.1681 19.7636 30.2435 19.6315 30.3779C19.4993 30.5123 19.4251 30.6945 19.4251 30.8845C19.4251 31.0745 19.4993 31.2567 19.6315 31.3911C19.7636 31.5254 19.9428 31.6009 20.1296 31.6009H25.5055C25.598 31.6009 25.6897 31.5824 25.7751 31.5464C25.8606 31.5104 25.9383 31.4576 26.0037 31.3911C26.0691 31.3246 26.121 31.2456 26.1564 31.1587C26.1918 31.0717 26.2101 30.9786 26.2101 30.8845C26.2101 30.7904 26.1918 30.6972 26.1564 30.6103C26.121 30.5234 26.0691 30.4444 26.0037 30.3779C25.9383 30.3114 25.8606 30.2586 25.7751 30.2226C25.6897 30.1866 25.598 30.1681 25.5055 30.1681H25.5351ZM14.2268 30.1681H8.81545C8.62859 30.1681 8.44939 30.2435 8.31726 30.3779C8.18513 30.5123 8.1109 30.6945 8.1109 30.8845C8.1109 31.0745 8.18513 31.2567 8.31726 31.3911C8.44939 31.5254 8.62859 31.6009 8.81545 31.6009H14.1972C14.3841 31.6009 14.5633 31.5254 14.6954 31.3911C14.8276 31.2567 14.9018 31.0745 14.9018 30.8845C14.9018 30.6945 14.8276 30.5123 14.6954 30.3779C14.5633 30.2435 14.3841 30.1681 14.1972 30.1681H14.2268ZM14.2268 18.0069H8.81545C8.7179 17.9978 8.61955 18.0095 8.52668 18.0412C8.43382 18.0729 8.34847 18.1239 8.2761 18.1911C8.20373 18.2582 8.14592 18.3399 8.10637 18.4311C8.06682 18.5222 8.04639 18.6207 8.04639 18.7203C8.04639 18.8199 8.06682 18.9185 8.10637 19.0096C8.14592 19.1007 8.20373 19.1825 8.2761 19.2496C8.34847 19.3167 8.43382 19.3678 8.52668 19.3995C8.61955 19.4312 8.7179 19.4429 8.81545 19.4337H14.1972C14.3722 19.4174 14.5348 19.3351 14.6532 19.2032C14.7716 19.0712 14.8373 18.899 14.8373 18.7203C14.8373 18.5417 14.7716 18.3695 14.6532 18.2375C14.5348 18.1055 14.3722 18.0233 14.1972 18.0069H14.2268ZM14.2268 24.0875H8.81545C8.7179 24.0784 8.61955 24.09 8.52668 24.1217C8.43382 24.1534 8.34847 24.2045 8.2761 24.2716C8.20373 24.3388 8.14592 24.4205 8.10637 24.5116C8.06682 24.6028 8.04639 24.7013 8.04639 24.8009C8.04639 24.9005 8.06682 24.999 8.10637 25.0902C8.14592 25.1813 8.20373 25.263 8.2761 25.3302C8.34847 25.3973 8.43382 25.4484 8.52668 25.4801C8.61955 25.5118 8.7179 25.5234 8.81545 25.5143H14.1972C14.3722 25.498 14.5348 25.4157 14.6532 25.2837C14.7716 25.1518 14.8373 24.9796 14.8373 24.8009C14.8373 24.6223 14.7716 24.45 14.6532 24.3181C14.5348 24.1861 14.3722 24.1038 14.1972 24.0875H14.2268ZM25.5351 18.0069H20.1296C20.0321 17.9978 19.9337 18.0095 19.8409 18.0412C19.748 18.0729 19.6627 18.1239 19.5903 18.1911C19.5179 18.2582 19.4601 18.3399 19.4206 18.4311C19.381 18.5222 19.3606 18.6207 19.3606 18.7203C19.3606 18.8199 19.381 18.9185 19.4206 19.0096C19.4601 19.1007 19.5179 19.1825 19.5903 19.2496C19.6627 19.3167 19.748 19.3678 19.8409 19.3995C19.9337 19.4312 20.0321 19.4429 20.1296 19.4337H25.5055C25.6031 19.4429 25.7014 19.4312 25.7943 19.3995C25.8872 19.3678 25.9725 19.3167 26.0449 19.2496C26.1172 19.1825 26.175 19.1007 26.2146 19.0096C26.2542 18.9185 26.2746 18.8199 26.2746 18.7203C26.2746 18.6207 26.2542 18.5222 26.2146 18.4311C26.175 18.3399 26.1172 18.2582 26.0449 18.1911C25.9725 18.1239 25.8872 18.0729 25.7943 18.0412C25.7014 18.0095 25.6031 17.9978 25.5055 18.0069H25.5351ZM25.5351 24.0875H20.1296C20.0321 24.0784 19.9337 24.09 19.8409 24.1217C19.748 24.1534 19.6627 24.2045 19.5903 24.2716C19.5179 24.3388 19.4601 24.4205 19.4206 24.5116C19.381 24.6028 19.3606 24.7013 19.3606 24.8009C19.3606 24.9005 19.381 24.999 19.4206 25.0902C19.4601 25.1813 19.5179 25.263 19.5903 25.3302C19.6627 25.3973 19.748 25.4484 19.8409 25.4801C19.9337 25.5118 20.0321 25.5234 20.1296 25.5143H25.5055C25.6031 25.5234 25.7014 25.5118 25.7943 25.4801C25.8872 25.4484 25.9725 25.3973 26.0449 25.3302C26.1172 25.263 26.175 25.1813 26.2146 25.0902C26.2542 24.999 26.2746 24.9005 26.2746 24.8009C26.2746 24.7013 26.2542 24.6028 26.2146 24.5116C26.175 24.4205 26.1172 24.3388 26.0449 24.2716C25.9725 24.2045 25.8872 24.1534 25.7943 24.1217C25.7014 24.09 25.6031 24.0784 25.5055 24.0875H25.5351ZM36.8493 18.0069H31.4438C31.3463 17.9978 31.2479 18.0095 31.1551 18.0412C31.0622 18.0729 30.9769 18.1239 30.9045 18.1911C30.8321 18.2582 30.7743 18.3399 30.7348 18.4311C30.6952 18.5222 30.6748 18.6207 30.6748 18.7203C30.6748 18.8199 30.6952 18.9185 30.7348 19.0096C30.7743 19.1007 30.8321 19.1825 30.9045 19.2496C30.9769 19.3167 31.0622 19.3678 31.1551 19.3995C31.2479 19.4312 31.3463 19.4429 31.4438 19.4337H36.8197C36.9173 19.4429 37.0156 19.4312 37.1085 19.3995C37.2013 19.3678 37.2867 19.3167 37.3591 19.2496C37.4314 19.1825 37.4892 19.1007 37.5288 19.0096C37.5683 18.9185 37.5888 18.8199 37.5888 18.7203C37.5888 18.6207 37.5683 18.5222 37.5288 18.4311C37.4892 18.3399 37.4314 18.2582 37.3591 18.1911C37.2867 18.1239 37.2013 18.0729 37.1085 18.0412C37.0156 18.0095 36.9173 17.9978 36.8197 18.0069H36.8493Z" fill="#FD7533"/>
</svg>
