<svg width="46" height="43" viewBox="0 0 46 43" fill="none" xmlns="http://www.w3.org/2000/svg">
<path d="M5.76488 42.9427C6.90586 42.9427 8.04631 42.9427 9.18729 42.9427C11.9084 42.9427 14.6294 42.9427 17.3505 42.9427C20.6581 42.9427 23.9652 42.9427 27.2729 42.9427C30.1166 42.9427 32.9604 42.9427 35.8041 42.9427C37.1899 42.9427 38.581 42.9791 39.9668 42.9427C39.9858 42.9422 40.0042 42.9427 40.0232 42.9427C40.4502 42.9427 40.8129 42.5749 40.8129 42.1396C40.8129 41.4136 40.8129 40.6881 40.8129 39.9621C40.8129 38.2189 40.8129 36.4751 40.8129 34.7318C40.8129 32.6223 40.8129 30.5123 40.8129 28.4028C40.8129 26.5782 40.8129 24.753 40.8129 22.9284C40.8129 22.0455 40.8645 21.1444 40.8129 20.2626C40.8124 20.2498 40.8129 20.2369 40.8129 20.2241C40.5497 20.4918 40.2864 20.7595 40.0232 21.0272C41.2705 21.0272 42.5173 21.0272 43.7646 21.0272C44.0611 21.0272 44.358 21.0272 44.6545 21.0272C44.9119 21.0272 45.1547 21.0432 45.3911 20.8987C45.9092 20.5828 45.8934 19.8766 45.479 19.4943C45.3621 19.3862 45.2389 19.2844 45.1194 19.1795C43.0575 17.3763 40.9962 15.573 38.9343 13.7693C37.311 12.3494 35.6883 10.929 34.0655 9.50911C32.5202 8.15722 30.9748 6.80587 29.43 5.45399C27.4745 3.74338 25.5195 2.03278 23.564 0.322713C23.5272 0.290054 23.4898 0.25793 23.4529 0.22527C23.1107 -0.0740184 22.6805 -0.07616 22.3362 0.22527C21.3384 1.09797 20.3406 1.97121 19.3429 2.84391C17.0762 4.8265 14.8095 6.80962 12.5428 8.79221C10.0971 10.9317 7.65194 13.0706 5.20624 15.21C3.67195 16.5523 2.13766 17.8945 0.603366 19.2368C0.49069 19.3353 0.370643 19.4295 0.263232 19.5345C-0.129555 19.9178 -0.081115 20.6074 0.397495 20.8987C0.634431 21.0432 0.876632 21.0272 1.13463 21.0272C2.55203 21.0272 3.96891 21.0272 5.38631 21.0272C5.51268 21.0272 5.63957 21.0272 5.76593 21.0272C5.50267 20.7595 5.23941 20.4918 4.97615 20.2241C4.97615 20.9501 4.97615 21.6755 4.97615 22.4015C4.97615 24.1448 4.97615 25.8886 4.97615 27.6319C4.97615 29.7413 4.97615 31.8514 4.97615 33.9608C4.97615 35.7855 4.97615 37.6106 4.97615 39.4353C4.97615 40.3225 4.94772 41.2144 4.97615 42.101C4.97667 42.1139 4.97615 42.1268 4.97615 42.1396C4.97509 42.5599 5.3384 42.9625 5.76488 42.9427C6.19295 42.9234 6.55467 42.5899 6.55467 42.1396C6.55467 41.4136 6.55467 40.6881 6.55467 39.9621C6.55467 38.2189 6.55467 36.4751 6.55467 34.7318C6.55467 32.6223 6.55467 30.5123 6.55467 28.4028C6.55467 26.5782 6.55467 24.753 6.55467 22.9284C6.55467 22.0412 6.5831 21.1492 6.55467 20.2626C6.55414 20.2498 6.55467 20.2369 6.55467 20.2241C6.55467 19.7899 6.19295 19.421 5.76488 19.421C4.32589 19.421 2.8869 19.421 1.44791 19.421C1.24467 19.421 1.04143 19.421 0.838196 19.421C0.97088 19.4574 1.10409 19.4943 1.23677 19.5307C1.22256 19.5243 1.20782 19.5184 1.1936 19.512C1.3147 19.6721 1.4358 19.8322 1.55637 19.9917C1.55111 19.9778 1.54584 19.9639 1.54111 19.9505C1.51478 20.1566 1.48793 20.3633 1.4616 20.5694C1.39263 20.7172 1.31681 20.7177 1.39789 20.6545C1.43843 20.6229 1.47582 20.5865 1.51425 20.5528C1.65852 20.4265 1.80279 20.3006 1.94706 20.1743C2.48569 19.7031 3.0238 19.232 3.56243 18.7614C5.32576 17.2183 7.08962 15.6758 8.85294 14.1328C10.978 12.2739 13.103 10.4145 15.2286 8.55556C17.0646 6.94936 18.9011 5.34316 20.7371 3.73696C21.6259 2.95956 22.562 2.21428 23.4145 1.39458C23.4266 1.38281 23.4398 1.37263 23.4524 1.36139C23.0801 1.36139 22.7079 1.36139 22.3356 1.36139C23.6225 2.4868 24.9088 3.61221 26.1956 4.73762C28.1242 6.42467 30.0524 8.11171 31.981 9.79822C33.0852 10.7641 34.1888 11.7299 35.2929 12.6958C36.5276 13.7762 37.7628 14.8567 38.998 15.9371C40.7692 17.4866 42.5405 19.0355 44.3117 20.5849C44.3407 20.6101 44.3686 20.6395 44.3996 20.662C44.4707 20.7134 44.4017 20.7338 44.3264 20.5689C44.3001 20.3627 44.2733 20.1561 44.2469 19.9499C44.2417 19.9639 44.2369 19.9778 44.2317 19.9912C44.3528 19.8311 44.4739 19.671 44.5944 19.5115C44.5802 19.5179 44.566 19.5238 44.5513 19.5302C44.684 19.4938 44.8172 19.4568 44.9498 19.4204C43.5109 19.4204 42.0719 19.4204 40.6329 19.4204C40.4296 19.4204 40.2264 19.4204 40.0232 19.4204C39.5961 19.4204 39.2334 19.7883 39.2334 20.2235C39.2334 20.9495 39.2334 21.675 39.2334 22.401C39.2334 24.1443 39.2334 25.8881 39.2334 27.6313C39.2334 29.7408 39.2334 31.8508 39.2334 33.9603C39.2334 35.7849 39.2334 37.6101 39.2334 39.4348C39.2334 40.3176 39.1818 41.2187 39.2334 42.1005C39.2339 42.1134 39.2334 42.1262 39.2334 42.1391C39.4966 41.8714 39.7599 41.6037 40.0232 41.336C38.8822 41.336 37.7417 41.336 36.6008 41.336C33.8797 41.336 31.1586 41.336 28.4375 41.336C25.1299 41.336 21.8228 41.336 18.5152 41.336C15.6714 41.336 12.8277 41.336 9.98392 41.336C8.59811 41.336 7.20703 41.2996 5.82122 41.336C5.80226 41.3365 5.78384 41.336 5.76488 41.336C5.35156 41.336 4.95614 41.7054 4.9751 42.1391C4.99405 42.5749 5.32207 42.9427 5.76488 42.9427Z" fill="#FD7533"/>
<path d="M37.4169 5.26122C37.4169 7.8713 37.4169 10.4814 37.4169 13.0914C37.4169 13.4577 37.4169 13.8233 37.4169 14.1896C37.8666 14 38.3157 13.811 38.7654 13.6215C37.3785 12.4083 35.9922 11.1951 34.6053 9.98185C34.4078 9.80891 34.2104 9.63651 34.013 9.46358C34.0898 9.65311 34.1672 9.84211 34.2441 10.0316C34.2441 8.63853 34.2441 7.24595 34.2441 5.85284C34.2441 5.65528 34.2441 5.45825 34.2441 5.26069C34.1672 5.45022 34.0898 5.63922 34.013 5.82875C34.0145 5.82714 34.0161 5.82554 34.0177 5.82393C33.8313 5.9021 33.6454 5.9808 33.4591 6.05897C34.8433 6.05897 36.227 6.05897 37.6112 6.05897C37.8081 6.05897 38.0051 6.05897 38.2015 6.05897C38.0151 5.9808 37.8292 5.9021 37.6428 5.82393C37.6444 5.82554 37.646 5.82714 37.6475 5.82875C37.9492 6.13553 38.4626 6.13553 38.7643 5.82875C39.0671 5.52089 39.0671 5.00048 38.7643 4.69317C38.4005 4.3232 37.6154 4.45277 37.1458 4.45277C36.3844 4.45277 35.6231 4.45277 34.8617 4.45277C34.3994 4.45277 33.9324 4.43296 33.4706 4.45277C32.5587 4.49239 32.664 5.38437 32.664 6.02631C32.664 7.33536 32.6393 8.64709 32.664 9.95561C32.6735 10.4648 32.9657 10.6607 33.2969 10.9504C33.7902 11.3819 34.2836 11.814 34.7769 12.2455C35.7336 13.0829 36.6909 13.9197 37.6475 14.7571C38.1504 15.1972 38.996 14.922 38.996 14.189C38.996 11.5789 38.996 8.96887 38.996 6.35879C38.996 5.99258 38.996 5.6269 38.996 5.26069C38.996 4.8404 38.6327 4.43831 38.2062 4.45759C37.7787 4.4774 37.4169 4.81095 37.4169 5.26122Z" fill="#FD7533"/>
<path d="M30.6489 17.5331C30.096 18.0953 29.5432 18.6575 28.9908 19.2191C27.6698 20.5624 26.3487 21.9057 25.0277 23.2491C23.4239 24.8799 21.8201 26.5107 20.2163 28.1416C18.8347 29.5464 17.4536 30.9508 16.072 32.3557C15.3991 33.0399 14.7025 33.707 14.0502 34.4116C14.0412 34.4213 14.0318 34.4304 14.0223 34.44C13.7206 34.7468 13.7206 35.2688 14.0223 35.5756C14.325 35.8834 14.8368 35.8834 15.139 35.5756C15.6919 35.0134 16.2447 34.4512 16.7971 33.8896C18.1181 32.5463 19.4392 31.203 20.7602 29.8597C22.364 28.2288 23.9678 26.598 25.5716 24.9672C26.9532 23.5623 28.3343 22.1579 29.7159 20.753C30.3888 20.0688 31.0853 19.4017 31.7377 18.6971C31.7467 18.6875 31.7561 18.6784 31.7656 18.6687C32.0673 18.3619 32.0673 17.8399 31.7656 17.5331C31.4629 17.2253 30.9516 17.2253 30.6489 17.5331Z" fill="white"/>
<path d="M17.3711 24.4864C17.2979 24.4864 17.2258 24.4816 17.1531 24.4778C17.1421 24.4773 17.0231 24.4655 17.1158 24.4762C17.2153 24.488 17.0684 24.4671 17.0452 24.4623C16.9646 24.4463 16.8846 24.427 16.8062 24.404C16.7614 24.3911 16.7172 24.3767 16.6735 24.3611C16.655 24.3547 16.4813 24.283 16.5745 24.3247C16.6445 24.3563 16.4539 24.261 16.4218 24.2428C16.3418 24.1978 16.267 24.1454 16.1896 24.0966C16.1643 24.0811 16.0706 24.0051 16.1854 24.0982C16.1591 24.0768 16.1322 24.0549 16.1069 24.0319C16.0311 23.9622 15.9563 23.8921 15.8863 23.8161C15.8553 23.7824 15.8263 23.747 15.7963 23.7128C15.7889 23.7042 15.7205 23.6137 15.7736 23.6854C15.8184 23.7465 15.6994 23.5709 15.6799 23.5387C15.6315 23.4595 15.592 23.376 15.5472 23.2951C15.5325 23.2684 15.4867 23.1543 15.543 23.2951C15.5214 23.2405 15.502 23.1854 15.4835 23.1297C15.4577 23.051 15.4356 22.9712 15.4172 22.8904C15.4051 22.8374 15.373 22.5857 15.3866 22.748C15.3777 22.6377 15.3724 22.5274 15.3719 22.4165C15.3698 21.9759 15.3719 21.5353 15.3719 21.0946C15.3719 21.0438 15.3714 20.9935 15.3719 20.9426C15.3724 20.88 15.374 20.8178 15.3782 20.7552C15.3798 20.7316 15.3935 20.578 15.3819 20.6802C15.3703 20.7836 15.4024 20.5721 15.4024 20.5732C15.4356 20.4115 15.4819 20.2514 15.5435 20.0983C15.4841 20.2466 15.5873 20.0185 15.6115 19.9741C15.6615 19.8825 15.7173 19.7958 15.7752 19.7096C15.8252 19.6346 15.7621 19.724 15.7542 19.7337C15.7826 19.6978 15.8121 19.6625 15.8421 19.6277C15.9021 19.5586 15.9658 19.4927 16.0322 19.4296C16.0595 19.4039 16.2201 19.2689 16.1606 19.3144C16.0901 19.3691 16.1817 19.3005 16.1906 19.2952C16.2491 19.2588 16.3044 19.2186 16.3633 19.1833C16.4323 19.142 16.5039 19.1056 16.5755 19.0692C16.6561 19.0285 16.5561 19.0751 16.5445 19.0799C16.5871 19.0623 16.6308 19.0462 16.6745 19.0307C16.7625 18.9996 16.8525 18.9734 16.9431 18.952C16.9936 18.9402 17.2426 18.9075 17.0831 18.9209C17.2405 18.9075 17.3969 18.9016 17.5549 18.9118C17.578 18.9134 17.7292 18.9273 17.6286 18.9156C17.537 18.9049 17.6528 18.9204 17.6644 18.9225C17.7681 18.9434 17.8703 18.967 17.9719 18.998C18.0493 19.0216 18.1261 19.0483 18.2014 19.0794C18.0477 19.0157 18.2925 19.1313 18.3236 19.1485C18.3936 19.1881 18.4605 19.232 18.5279 19.2754C18.5463 19.2877 18.6632 19.3728 18.5863 19.3139C18.5079 19.2545 18.6658 19.3835 18.6648 19.3824C18.7833 19.4895 18.8943 19.6068 18.9928 19.7326C18.8965 19.6094 19.0402 19.8102 19.066 19.8531C19.1202 19.9425 19.1676 20.0346 19.2134 20.1288C19.2534 20.2107 19.2076 20.109 19.2029 20.0972C19.2203 20.1406 19.2361 20.185 19.2513 20.2294C19.2819 20.3189 19.3077 20.4104 19.3287 20.5025C19.3377 20.541 19.373 20.7584 19.3645 20.6797C19.354 20.5855 19.3656 20.707 19.3661 20.7177C19.3698 20.7921 19.3735 20.865 19.3745 20.9394C19.3788 21.3404 19.3745 21.7419 19.3745 22.143C19.3745 22.234 19.3751 22.325 19.3745 22.4155C19.3745 22.4401 19.3745 22.4647 19.374 22.4894C19.3735 22.5263 19.3724 22.5632 19.3709 22.6007C19.3698 22.6216 19.3419 22.8566 19.3698 22.6778C19.3387 22.8781 19.2866 23.0724 19.2161 23.2619C19.1839 23.3487 19.2234 23.2427 19.2287 23.232C19.1992 23.2951 19.1692 23.3578 19.1355 23.4188C19.0913 23.5002 19.0397 23.5762 18.9918 23.6549C18.9765 23.6806 18.9017 23.7759 18.9933 23.6592C18.9581 23.7042 18.9207 23.7481 18.8828 23.7904C18.8217 23.8589 18.7575 23.9242 18.6906 23.9858C18.6569 24.0169 18.6221 24.0463 18.5874 24.0763C18.52 24.1341 18.6806 24.0195 18.5568 24.0966C18.4789 24.1454 18.4047 24.1978 18.3246 24.2428C18.2846 24.2653 18.243 24.2846 18.203 24.3076C18.0182 24.4125 18.2836 24.2813 18.1704 24.3247C18.0724 24.3622 17.9735 24.3959 17.8724 24.4227C17.7813 24.4468 17.6891 24.4661 17.5959 24.4811C17.7476 24.457 17.6238 24.4768 17.5923 24.4773C17.5164 24.48 17.4438 24.4859 17.3711 24.4864C16.9583 24.4918 16.5618 24.8521 16.5813 25.2895C16.6003 25.72 16.9283 26.0985 17.3711 26.0926C19.3408 26.0669 20.9315 24.4457 20.9515 22.4422C20.9562 21.9641 20.9531 21.485 20.9515 21.0068C20.9488 20.1127 20.6635 19.2882 20.1069 18.5959C18.8391 17.0186 16.5092 16.9191 15.0144 18.2003C14.2767 18.8326 13.8576 19.7845 13.7965 20.7536C13.7655 21.2478 13.7902 21.7494 13.7902 22.2447C13.7902 23.1929 14.0382 24.0538 14.6348 24.7948C15.2945 25.6145 16.3328 26.0926 17.3706 26.0926C17.7839 26.0926 18.1793 25.7232 18.1604 25.2895C18.1419 24.8548 17.8139 24.4864 17.3711 24.4864Z" fill="white"/>
<path d="M28.4155 34.2043C28.3423 34.2043 28.2702 34.1995 28.1975 34.1957C28.1865 34.1952 28.0675 34.1834 28.1601 34.1941C28.2596 34.2059 28.1127 34.185 28.0896 34.1802C28.009 34.1641 27.929 34.1449 27.8505 34.1219C27.8058 34.109 27.7615 34.0945 27.7178 34.079C27.6994 34.0726 27.5257 34.0009 27.6189 34.0426C27.6889 34.0742 27.4983 33.9789 27.4662 33.9607C27.3861 33.9157 27.3114 33.8633 27.234 33.8145C27.2087 33.799 27.115 33.723 27.2298 33.8161C27.2034 33.7947 27.1766 33.7728 27.1513 33.7497C27.0755 33.6801 27.0007 33.61 26.9307 33.534C26.8996 33.5003 26.8707 33.4649 26.8407 33.4306C26.8333 33.4221 26.7648 33.3316 26.818 33.4033C26.8628 33.4644 26.7438 33.2888 26.7243 33.2566C26.6759 33.1774 26.6364 33.0939 26.5916 33.013C26.5769 32.9863 26.5311 32.8722 26.5874 33.0125C26.5658 32.9579 26.5463 32.9027 26.5279 32.8471C26.5021 32.7684 26.48 32.6886 26.4616 32.6077C26.4494 32.5547 26.4173 32.3031 26.431 32.4653C26.4221 32.355 26.4168 32.2447 26.4163 32.1339C26.4142 31.6933 26.4163 31.2526 26.4163 30.812C26.4163 30.7611 26.4157 30.7108 26.4163 30.66C26.4168 30.5973 26.4184 30.5352 26.4226 30.4726C26.4242 30.449 26.4379 30.2953 26.4263 30.3976C26.4147 30.5009 26.4468 30.2895 26.4468 30.2905C26.48 30.1288 26.5263 29.9688 26.5879 29.8156C26.5284 29.9639 26.6316 29.7359 26.6558 29.6914C26.7059 29.5999 26.7617 29.5131 26.8196 29.4269C26.8696 29.352 26.8064 29.4414 26.7985 29.451C26.827 29.4151 26.8564 29.3798 26.8865 29.345C26.9465 29.2759 27.0102 29.2101 27.0765 29.1469C27.1039 29.1212 27.2645 28.9863 27.205 29.0318C27.1345 29.0864 27.2261 29.0179 27.235 29.0125C27.2935 28.9761 27.3488 28.936 27.4077 28.9006C27.4767 28.8594 27.5483 28.823 27.6199 28.7866C27.7005 28.7459 27.6004 28.7925 27.5888 28.7973C27.6315 28.7796 27.6752 28.7636 27.7189 28.748C27.8068 28.717 27.8969 28.6908 27.9874 28.6693C28.038 28.6576 28.287 28.6249 28.1275 28.6383C28.2849 28.6249 28.4413 28.619 28.5992 28.6292C28.6224 28.6308 28.7735 28.6447 28.673 28.6329C28.5813 28.6222 28.6972 28.6377 28.7088 28.6399C28.8125 28.6608 28.9146 28.6843 29.0163 28.7154C29.0937 28.7389 29.1705 28.7657 29.2458 28.7968C29.0921 28.733 29.3369 28.8487 29.368 28.8658C29.438 28.9054 29.5049 28.9494 29.5723 28.9927C29.5907 29.005 29.7076 29.0902 29.6307 29.0313C29.5523 28.9718 29.7102 29.1009 29.7092 29.0998C29.8276 29.2069 29.9387 29.3241 30.0372 29.4499C29.9408 29.3268 30.0846 29.5276 30.1104 29.5704C30.1646 29.6598 30.212 29.7519 30.2578 29.8461C30.2978 29.9281 30.252 29.8263 30.2473 29.8146C30.2646 29.8579 30.2804 29.9024 30.2957 29.9468C30.3262 30.0362 30.352 30.1278 30.3731 30.2199C30.3821 30.2584 30.4173 30.4758 30.4089 30.3971C30.3984 30.3028 30.41 30.4244 30.4105 30.4351C30.4142 30.5095 30.4179 30.5823 30.4189 30.6567C30.4231 31.0578 30.4189 31.4593 30.4189 31.8603C30.4189 31.9513 30.4194 32.0424 30.4189 32.1328C30.4189 32.1575 30.4189 32.1821 30.4184 32.2067C30.4179 32.2437 30.4168 32.2806 30.4152 32.3181C30.4142 32.339 30.3863 32.574 30.4142 32.3952C30.3831 32.5954 30.331 32.7898 30.2604 32.9793C30.2283 33.066 30.2678 32.96 30.2731 32.9493C30.2436 33.0125 30.2136 33.0751 30.1799 33.1362C30.1356 33.2176 30.084 33.2936 30.0361 33.3723C30.0209 33.398 29.9461 33.4933 30.0377 33.3766C30.0024 33.4215 29.965 33.4654 29.9271 33.5077C29.8661 33.5763 29.8018 33.6416 29.735 33.7032C29.7013 33.7342 29.6665 33.7637 29.6318 33.7936C29.5644 33.8515 29.725 33.7369 29.6012 33.814C29.5233 33.8627 29.4491 33.9152 29.369 33.9602C29.329 33.9826 29.2874 34.0019 29.2474 34.0249C29.0626 34.1299 29.328 33.9987 29.2147 34.0421C29.1168 34.0796 29.0178 34.1133 28.9167 34.1401C28.8256 34.1641 28.7335 34.1834 28.6403 34.1984C28.792 34.1743 28.6682 34.1941 28.6366 34.1947C28.5608 34.1979 28.4881 34.2038 28.4155 34.2043C28.0027 34.2097 27.6062 34.57 27.6257 35.0074C27.6447 35.4379 27.9727 35.8164 28.4155 35.8105C30.3852 35.7848 31.9758 34.1636 31.9958 32.1601C32.0006 31.682 31.9974 31.2028 31.9958 30.7247C31.9932 29.8306 31.7078 29.0061 31.1513 28.3138C29.8834 26.7365 27.5536 26.637 26.0588 27.9182C25.3211 28.5505 24.902 29.5024 24.8409 30.4715C24.8099 30.9657 24.8346 31.4673 24.8346 31.9626C24.8346 32.9108 25.0826 33.7717 25.6791 34.5127C26.3389 35.3324 27.3772 35.8105 28.415 35.8105C28.8283 35.8105 29.2237 35.4411 29.2047 35.0074C29.1858 34.5727 28.8583 34.2043 28.4155 34.2043Z" fill="white"/>
</svg>
