<svg width="43" height="42" viewBox="0 0 43 42" fill="none" xmlns="http://www.w3.org/2000/svg">
<path d="M42.2308 22.2178C42.2308 21.5941 42.0389 21.0328 41.7189 20.5339L37.4319 13.6113C36.792 12.6134 35.7043 12.0521 34.5525 12.0521H28.2179V7.00049C28.2179 6.6263 27.898 6.37683 27.5781 6.37683H25.5305C25.1466 6.37683 24.8906 6.6263 24.8906 7.00049C24.8906 7.37469 25.1466 7.62415 25.5305 7.62415H26.9382V23.7146H1.27985V7.62415H2.62355C3.00747 7.62415 3.26341 7.37469 3.26341 7.00049C3.26341 6.6263 3.00747 6.37683 2.62355 6.37683H0.639989C0.256073 6.37683 0.0001297 6.6263 0.0001297 7.00049C0.0001297 8.68437 0.0001297 35.3147 0.0001297 35.3147C0.0001297 35.6889 0.256073 35.9383 0.639989 35.9383H7.35851C7.10256 38.8072 9.34207 41.1771 12.2214 41.1771C15.1008 41.1771 17.4043 38.7448 17.0844 35.9383H27.962C27.77 38.7448 30.0735 41.1771 32.9529 41.1771C35.8322 41.1771 38.1357 38.7448 37.8158 35.9383H41.591C41.9749 35.9383 42.2308 35.6889 42.2308 35.3147C42.2308 23.0909 42.2308 34.3168 42.2308 22.2178ZM34.5525 13.2995C35.2564 13.2995 35.9602 13.6737 36.3441 14.2973L40.6312 21.2199C40.8231 21.5318 40.9511 21.906 40.9511 22.2802V28.0178H28.2179V13.2995H34.5525ZM26.9382 24.9619V27.9555H1.27985V24.9619H26.9382ZM12.2854 39.9298C10.3019 39.9298 8.63823 38.3706 8.63823 36.3749C8.63823 34.4415 10.2379 32.82 12.2854 32.82C14.269 32.82 15.9326 34.3792 15.9326 36.3749C15.8686 38.3706 14.269 39.9298 12.2854 39.9298ZM32.9529 39.9298C30.9693 39.9298 29.3057 38.3706 29.3057 36.3749C29.3057 34.4415 30.9053 32.82 32.9529 32.82C34.9364 32.82 36.6001 34.3792 36.6001 36.3749C36.6001 38.3706 34.9364 39.9298 32.9529 39.9298ZM40.9511 34.691H37.5599C36.856 32.8824 35.0644 31.6351 32.9529 31.6351C30.8413 31.6351 29.0497 32.8824 28.3459 34.691H16.8284C16.1246 32.8824 14.333 31.6351 12.2214 31.6351C10.1099 31.6351 8.3183 32.8824 7.61445 34.691H1.27985V29.2652H40.9511V34.691Z" fill="white"/>
<path d="M31.2256 22.2803H37.6241C38.0081 22.2803 38.264 22.0309 38.264 21.6567C38.264 21.4696 38.2 21.3448 38.072 21.2201L34.9367 16.2932C34.6168 15.7943 34.0409 15.4824 33.4651 15.4824H31.1616C30.7777 15.4824 30.5217 15.7319 30.5217 16.1061V21.6567C30.5857 22.0309 30.8416 22.2803 31.2256 22.2803ZM31.8654 16.7921H33.5291C33.657 16.7921 33.849 16.8545 33.913 16.9792L36.4724 21.033H31.8654V16.7921Z" fill="#FD7533"/>
<path d="M2.62375 8.93393C2.68773 9.24576 2.94368 9.3705 3.19962 9.3705H4.15941V21.7813C4.15941 22.1555 4.41535 22.405 4.79927 22.405C20.9877 22.405 7.42269 22.405 23.2912 22.405C23.6751 22.405 23.9311 22.1555 23.9311 21.7813V9.3705H24.8908C25.2748 9.3705 25.5307 9.12103 25.5307 8.74684C25.5307 8.49737 25.4027 8.31027 25.2108 8.18554L14.4611 0.140324C14.2052 -0.0467745 13.8853 -0.0467745 13.6933 0.140324L2.87969 8.24791C2.62375 8.43501 2.55976 8.68447 2.62375 8.93393ZM11.0059 21.1577V16.605C11.0059 14.9834 12.3496 13.6114 14.0772 13.6114C15.7409 13.6114 17.1485 14.9211 17.1485 16.605V21.1577H11.0059ZM22.6513 21.1577H18.3643V16.605C18.3643 14.2974 16.4447 12.3641 14.0132 12.3641C11.6458 12.3641 9.6622 14.235 9.6622 16.605V21.1577H5.43913V9.3705H22.6513V21.1577ZM14.0772 1.45001L23.0352 8.18554H5.1192L14.0772 1.45001Z" fill="#FD7533"/>
</svg>
