<svg width="56" height="50" viewBox="0 0 56 50" fill="none" xmlns="http://www.w3.org/2000/svg">
<path d="M20.8579 14.3112L44.9688 0.156067L44.9708 0.154936C45.2431 -0.00419664 45.5516 -0.03678 45.8293 0.0390014C46.1102 0.115348 46.3628 0.301235 46.52 0.577782L46.5209 0.579435L55.4826 16.3632C55.5026 16.3983 55.52 16.4341 55.535 16.4705C55.6463 16.7207 55.6633 16.9933 55.5978 17.2419C55.5229 17.5259 55.3392 17.7829 55.0644 17.9442L30.9534 32.0993C30.6809 32.2593 30.3715 32.2924 30.0929 32.2164C29.8122 32.1401 29.5594 31.9543 29.4022 31.6776L20.4395 15.8922C20.4195 15.8569 20.402 15.8209 20.387 15.7842C20.2758 15.534 20.2589 15.2619 20.3244 15.0135C20.3993 14.7293 20.5833 14.4723 20.8579 14.3112ZM45.287 2.09447L22.3464 15.5625L30.6352 30.1609L53.5757 16.6929L45.287 2.09447Z" fill="white"/>
<path d="M41.3817 8.89176C40.9483 9.14695 40.3936 8.99665 40.1426 8.55597C39.8916 8.11533 40.0394 7.55119 40.4728 7.29596L43.4324 5.55838C43.8658 5.30319 44.4206 5.4535 44.6716 5.89418C44.9226 6.33481 44.7747 6.89895 44.3414 7.15418L41.3817 8.89176Z" fill="white"/>
<path d="M32.4903 26.6969C32.0569 26.9521 31.5021 26.8018 31.2511 26.3612C31.0002 25.9205 31.148 25.3563 31.5814 25.1011L34.541 23.3636C34.9744 23.1083 35.5291 23.2587 35.7801 23.6993C36.0311 24.14 35.8833 24.7041 35.45 24.9593L32.4903 26.6969Z" fill="white"/>
<path fill-rule="evenodd" clip-rule="evenodd" d="M39.2602 18.8883L37.9265 16.5394C37.0895 16.7522 36.3837 16.7446 35.8094 16.5168C35.232 16.2882 34.7724 15.8728 34.4284 15.2669C34.08 14.6533 33.9776 14.0257 34.1204 13.3872C34.2621 12.7467 34.6294 12.2114 35.2233 11.7784L34.9098 11.2262L35.7131 10.7545L36.0267 11.3067C36.6553 11.0323 37.2383 10.961 37.7777 11.0917C38.3152 11.2236 38.7924 11.5417 39.2075 12.047L37.9092 13.0548C37.572 12.6647 37.1796 12.4961 36.7322 12.5493L37.9765 14.7409C39.0018 14.4611 39.7867 14.4221 40.3261 14.6193C40.8685 14.8174 41.3108 15.2199 41.6548 15.8258C42.0391 16.5026 42.1607 17.1906 42.0187 17.8926C41.8768 18.5946 41.4781 19.2121 40.8212 19.7512L41.4157 20.7981L40.6123 21.2697L40.0245 20.2344C39.3463 20.5277 38.6965 20.5921 38.0711 20.4249C37.4457 20.2578 36.8707 19.8386 36.3447 19.1733L37.6836 18.1572C37.9118 18.422 38.169 18.6137 38.4542 18.7351C38.7394 18.8566 39.0067 18.9067 39.2602 18.8883ZM35.9158 12.9979C35.7435 13.2038 35.6468 13.4319 35.6227 13.6863C35.5988 13.9407 35.6487 14.1748 35.7717 14.3914C35.8838 14.5889 36.0449 14.7398 36.2568 14.8429C36.4677 14.9441 36.7233 14.9781 37.0196 14.9422L35.9158 12.9979ZM40.1158 18.5087C40.3581 18.2846 40.5082 18.0176 40.5641 17.7086C40.6219 17.3986 40.5704 17.1042 40.4104 16.8223C40.2688 16.573 40.0722 16.3995 39.8228 16.3056C39.5742 16.2087 39.2563 16.2112 38.867 16.3094L40.1158 18.5087Z" fill="white"/>
<path d="M4.71588 36.1644H1.81783V48.1514H4.71588V36.1644ZM0.908888 34.3159H5.62482H6.53375V35.2402V49.0756V49.9998H5.62482H0.908888H0V49.0756V35.2402V34.3159H0.908888Z" fill="#FD7533"/>
<path d="M6.53332 37.366V46.1408C8.23075 46.3706 9.64724 46.5779 10.9833 46.7735L10.984 46.7736C17.081 47.6661 21.5582 48.321 25.9916 47.5556C30.3623 46.8011 34.7965 44.6505 40.8783 39.9582C41.0591 39.4353 41.184 39.0197 41.2578 38.6992C40.5143 38.8898 39.0781 39.4913 37.2843 40.2427C34.3382 41.4768 30.5734 43.0538 26.3747 43.8965C22.1625 44.7418 17.5313 44.8474 12.8723 43.1434C12.7892 43.1334 12.7067 43.1128 12.625 43.0823C12.4138 43.0032 12.2211 42.8515 12.0684 42.6565C11.9639 42.5232 11.8693 42.3593 11.7999 42.1855C11.6555 41.8244 11.6023 41.3764 11.749 40.9714C11.8302 40.7473 11.9564 40.5501 12.1142 40.3866C12.2713 40.2236 12.4584 40.097 12.662 40.0132L22.1514 35.1885C22.0764 34.6893 21.6338 34.0389 19.8811 33.9255C17.6057 33.7783 13.5829 34.5405 6.53332 37.366ZM4.71545 46.9482V36.7412V36.1182L5.28705 35.8855C12.9856 32.7508 17.4349 31.9185 19.9947 32.0841C23.08 32.2838 23.8331 33.8657 23.9606 35.0367L23.961 35.0366L23.9672 35.0941C24.0806 36.1335 24.0942 36.2589 23.1355 36.7461L13.7701 41.5078C17.9749 42.973 22.1803 42.856 26.0268 42.0841C30.0673 41.2732 33.7296 39.7391 36.5955 38.5386C39.3425 37.388 41.3666 36.5401 42.3732 36.918C42.9884 37.1489 43.2541 37.6944 43.1157 38.6486C43.0434 39.1471 42.8421 39.8614 42.4933 40.841L42.1915 41.2598C35.7413 46.2673 31.0118 48.5601 26.2899 49.3753C21.5799 50.1884 16.9854 49.5164 10.7286 48.6005L10.7279 48.6004C9.09042 48.3607 7.34032 48.1045 5.50724 47.8616L4.71548 47.7567V46.9482L4.71545 46.9482Z" fill="#FD7533"/>
</svg>
