<svg width="31" height="19" viewBox="0 0 31 19" fill="none" xmlns="http://www.w3.org/2000/svg">
<path d="M7.31136 8.69261C7.24493 8.69261 7.17851 8.67128 7.12275 8.62782C6.9612 8.50235 6.61432 8.49169 6.27851 8.48144C5.955 8.4716 5.62001 8.46135 5.34407 8.34983C5.03573 8.22518 4.80858 8.00541 4.60849 7.81188C4.57405 7.77866 4.5396 7.74504 4.50475 7.71224C4.35427 7.57037 4.22143 7.44286 4.09842 7.32272C4.09678 7.32108 4.09514 7.31944 4.0935 7.3178C3.97336 7.19479 3.84584 7.06153 3.70398 6.91147C3.67117 6.87661 3.63755 6.84217 3.60434 6.80773C3.41081 6.60764 3.19104 6.3809 3.06639 6.07256C2.95487 5.7962 2.94461 5.46163 2.93477 5.13812C2.92452 4.80231 2.91386 4.45502 2.7884 4.29388C2.69327 4.17128 2.70393 3.99743 2.81382 3.88755C2.9237 3.77766 3.09755 3.767 3.22015 3.86213C3.3817 3.98759 3.72858 3.99825 4.06439 4.00851C4.38789 4.01835 4.72288 4.0286 4.99883 4.14012C5.30717 4.26477 5.53432 4.48454 5.73441 4.67807C5.76885 4.71128 5.80329 4.74491 5.83815 4.77771C5.99108 4.92203 6.12434 5.04955 6.24448 5.16723C6.24612 5.16887 6.24776 5.17051 6.2494 5.17215C6.36707 5.2927 6.49459 5.42554 6.63892 5.57848C6.67172 5.61333 6.70534 5.64778 6.73856 5.68222C6.93209 5.88231 7.15186 6.10905 7.2765 6.4178C7.38803 6.69415 7.39828 7.02873 7.40812 7.35265C7.41837 7.68846 7.42903 8.03575 7.5545 8.19689C7.64963 8.31948 7.63897 8.49333 7.52908 8.60322C7.46922 8.66226 7.39049 8.69261 7.31136 8.69261ZM4.53017 6.88523C4.6499 7.00208 4.77947 7.12632 4.92625 7.2645C4.96275 7.29894 4.99924 7.3342 5.03573 7.36946C5.21081 7.53921 5.37646 7.69953 5.57409 7.77907C5.74835 7.8496 6.02717 7.85821 6.29696 7.86641C6.47368 7.87174 6.65327 7.87748 6.82507 7.8988C6.80375 7.72659 6.79801 7.54741 6.79268 7.37069C6.78448 7.1009 6.77587 6.82208 6.70534 6.64782C6.62539 6.4506 6.46507 6.28495 6.29573 6.10946C6.26047 6.07297 6.22521 6.03648 6.19076 5.99998C6.05013 5.85074 5.92589 5.72117 5.81149 5.60431C5.69423 5.48992 5.56466 5.36568 5.41541 5.22463C5.37892 5.19019 5.34243 5.15493 5.30594 5.11967C5.13045 4.94992 4.96521 4.7896 4.76758 4.71005C4.59332 4.63953 4.3145 4.63092 4.04471 4.62272C3.86799 4.61739 3.6884 4.61165 3.5166 4.59033C3.53792 4.76254 3.54366 4.94172 3.54899 5.11844C3.55719 5.38823 3.5658 5.66705 3.63632 5.84131C3.71628 6.03853 3.8766 6.20418 4.04594 6.37967C4.0812 6.41616 4.11646 6.45265 4.1509 6.48914C4.28908 6.63552 4.41332 6.76509 4.53017 6.88523Z" fill="#FD7533" stroke="#FD7533" stroke-width="0.3"/>
<path d="M3.02961 18.2871H1.30752C1.13777 18.2871 1 18.1493 1 17.9796V0.594626C1 0.424877 1.13777 0.287109 1.30752 0.287109H3.02961C3.19936 0.287109 3.33713 0.424877 3.33713 0.594626V17.9796C3.33713 18.1493 3.19936 18.2871 3.02961 18.2871ZM1.61503 17.6721H2.7221V0.902144H1.61503V17.6721Z" fill="#FD7533" stroke="#FD7533" stroke-width="0.3"/>
<path d="M30.5013 17.2871H28.7792C28.6094 17.2871 28.4717 17.1493 28.4717 16.9796V8.12307C28.4717 7.95332 28.6094 7.81555 28.7792 7.81555H30.5013C30.671 7.81555 30.8088 7.95332 30.8088 8.12307V16.9796C30.8088 17.1493 30.671 17.2871 30.5013 17.2871ZM29.0867 16.672H30.1938V8.43059H29.0867V16.672Z" fill="#FD7533" stroke="#FD7533" stroke-width="0.3"/>
<path d="M28.7796 12.8589H3.03017C2.86042 12.8589 2.72266 12.7211 2.72266 12.5513V10.8292C2.72266 10.6595 2.86042 10.5217 3.03017 10.5217H28.7796C28.9494 10.5217 29.0871 10.6595 29.0871 10.8292V12.5513C29.0871 12.7211 28.9494 12.8589 28.7796 12.8589ZM3.33769 12.2438H28.4721V11.1368H3.33769V12.2438Z" fill="#FD7533" stroke="#FD7533" stroke-width="0.3"/>
<path d="M28.7796 11.1367H3.03017C2.86042 11.1367 2.72266 10.999 2.72266 10.8292V8.85168C2.72266 7.87337 3.51851 7.07751 4.49683 7.07751H27.313C28.2913 7.07751 29.0871 7.87337 29.0871 8.85168V10.8292C29.0871 10.999 28.9494 11.1367 28.7796 11.1367ZM3.33769 10.5217H28.4721V8.85168C28.4721 8.21246 27.9522 7.69255 27.313 7.69255H4.49683C3.8576 7.69255 3.33769 8.21246 3.33769 8.85168V10.5217Z" fill="#FD7533" stroke="#FD7533" stroke-width="0.3"/>
</svg>
