<svg width="22" height="19" viewBox="0 0 22 19" fill="none" xmlns="http://www.w3.org/2000/svg">
<path d="M5.77674 11.0628C5.74405 10.9873 5.69873 10.9179 5.64273 10.8576C5.6125 10.8302 5.58031 10.805 5.5464 10.7822C5.51245 10.7586 5.47592 10.7389 5.43752 10.7236C5.40027 10.7068 5.36076 10.6955 5.32025 10.6901C5.21884 10.6704 5.11417 10.6753 5.01505 10.7044C4.91593 10.7336 4.82526 10.7861 4.75069 10.8576C4.69468 10.9179 4.64936 10.9873 4.61667 11.0628C4.59984 11.1001 4.58855 11.1396 4.58316 11.1801C4.57905 11.2219 4.57905 11.264 4.58316 11.3057C4.58261 11.3884 4.59848 11.4703 4.62985 11.5468C4.66122 11.6233 4.70748 11.6927 4.76592 11.7512C4.82436 11.8096 4.89384 11.8559 4.97031 11.8872C5.04677 11.9186 5.12871 11.9345 5.21136 11.9339H5.33282C5.37303 11.9252 5.4123 11.9126 5.45008 11.8962C5.5256 11.8635 5.59499 11.8182 5.65529 11.7622C5.72875 11.6889 5.78287 11.5984 5.81284 11.4991C5.8428 11.3997 5.84767 11.2944 5.827 11.1927C5.81504 11.1477 5.79819 11.1041 5.77674 11.0628Z" fill="#7822DE" stroke="#7822DE" stroke-width="0.1"/>
<path d="M16.8413 11.0628C16.8259 11.0244 16.8062 10.9879 16.7826 10.9539C16.7597 10.919 16.733 10.8867 16.7031 10.8576C16.5818 10.7467 16.4235 10.6851 16.2591 10.6851C16.0948 10.6851 15.9364 10.7467 15.8152 10.8576C15.7592 10.9179 15.7139 10.9873 15.6812 11.0628C15.6412 11.1582 15.6254 11.262 15.6351 11.3649C15.6449 11.4679 15.6799 11.5669 15.7371 11.653C15.7942 11.7392 15.8718 11.8099 15.9629 11.8589C16.0539 11.9079 16.1557 11.9337 16.2591 11.9339C16.4257 11.9338 16.5854 11.8675 16.7031 11.7497C16.7765 11.6763 16.8306 11.5859 16.8606 11.4865C16.8906 11.3871 16.8954 11.2818 16.8748 11.1801C16.8694 11.1396 16.8581 11.1001 16.8413 11.0628Z" fill="#7822DE" stroke="#7822DE" stroke-width="0.1"/>
<path d="M0.791773 5.95348H1.83877L1.55399 7.13449H1.09331C0.9267 7.13449 0.766915 7.20067 0.649105 7.31848C0.531295 7.43629 0.46511 7.59608 0.46511 7.76269V14.8446C0.46511 15.0112 0.531295 15.171 0.649105 15.2888C0.766915 15.4066 0.9267 15.4728 1.09331 15.4728H2.48791V16.5407C2.48791 16.7701 2.53308 16.9972 2.62085 17.209C2.70861 17.4209 2.83725 17.6134 2.99942 17.7756C3.16158 17.9378 3.3541 18.0664 3.56599 18.1542C3.77787 18.2419 4.00496 18.2871 4.2343 18.2871H4.81224C5.04158 18.2871 5.26868 18.2419 5.48056 18.1542C5.69244 18.0664 5.88496 17.9378 6.04713 17.7756C6.2093 17.6134 6.33794 17.4209 6.4257 17.209C6.51346 16.9972 6.55864 16.7701 6.55864 16.5407V15.4728H14.8969V16.5407C14.8969 16.7701 14.9421 16.9972 15.0299 17.209C15.1176 17.4209 15.2463 17.6134 15.4084 17.7756C15.5706 17.9378 15.7631 18.0664 15.975 18.1542C16.1869 18.2419 16.414 18.2871 16.6433 18.2871H17.2213C17.4506 18.2871 17.6777 18.2419 17.8896 18.1542C18.1015 18.0664 18.294 17.9378 18.4561 17.7756C18.6183 17.6134 18.747 17.4209 18.8347 17.209C18.9225 16.9972 18.9677 16.7701 18.9677 16.5407V15.4728H20.3623C20.5289 15.4728 20.6886 15.4066 20.8065 15.2888C20.9243 15.171 20.9905 15.0112 20.9905 14.8446V7.76269C20.9905 7.59608 20.9243 7.43629 20.8065 7.31848C20.6886 7.20067 20.5289 7.13449 20.3623 7.13449H19.889L19.6042 5.95348H20.6847C20.8513 5.95348 21.0111 5.88729 21.1289 5.76948C21.2467 5.65167 21.3129 5.49189 21.3129 5.32528C21.3129 5.15867 21.2467 4.99888 21.1289 4.88107C21.0111 4.76326 20.8513 4.69708 20.6847 4.69708H19.3027L18.3562 0.785495C18.3276 0.646115 18.2522 0.520707 18.1425 0.430065C18.0328 0.339422 17.8954 0.288988 17.7531 0.287125H3.7108C3.56636 0.286106 3.42604 0.335227 3.31378 0.426111C3.20151 0.516994 3.12425 0.64401 3.09517 0.785495L2.14868 4.71383H0.791773C0.625164 4.71383 0.465379 4.78002 0.347569 4.89783C0.229759 5.01564 0.163574 5.17542 0.163574 5.34203C0.163574 5.50864 0.229759 5.66842 0.347569 5.78623C0.465379 5.90404 0.625164 5.97023 0.791773 5.97023V5.95348ZM5.30224 16.5407C5.30115 16.6703 5.24917 16.7943 5.15751 16.886C5.06586 16.9776 4.94186 17.0296 4.81224 17.0307H4.2343C4.10435 17.0307 3.97971 16.9791 3.88782 16.8872C3.79593 16.7953 3.74431 16.6707 3.74431 16.5407V15.4728H5.30224V16.5407ZM17.7113 16.5407C17.7113 16.6707 17.6596 16.7953 17.5677 16.8872C17.4758 16.9791 17.3512 17.0307 17.2213 17.0307H16.6433C16.5137 17.0296 16.3897 16.9776 16.298 16.886C16.2064 16.7943 16.1544 16.6703 16.1533 16.5407V15.4728H17.7113V16.5407ZM19.7341 14.2164H1.72569V8.39089H19.7341V14.2164ZM13.4186 7.13449C13.4206 7.09682 13.4206 7.05908 13.4186 7.02141C13.4094 6.87582 13.4302 6.72991 13.4797 6.59267C13.5291 6.45543 13.6061 6.32977 13.706 6.22344C13.8059 6.11711 13.9264 6.03237 14.0603 5.97444C14.1942 5.91652 14.3385 5.88663 14.4844 5.88663C14.6303 5.88663 14.7746 5.91652 14.9085 5.97444C15.0424 6.03237 15.163 6.11711 15.2628 6.22344C15.3627 6.32977 15.4397 6.45543 15.4892 6.59267C15.5386 6.72991 15.5594 6.87582 15.5503 7.02141C15.5461 7.05899 15.5461 7.09691 15.5503 7.13449H13.4186ZM4.20499 1.54352H17.2506L18.5907 7.13449H16.8067C16.8108 7.09691 16.8108 7.05899 16.8067 7.02141C16.82 6.70815 16.7697 6.39544 16.659 6.1021C16.5483 5.80875 16.3794 5.54083 16.1625 5.31447C15.9455 5.08811 15.685 4.90798 15.3966 4.78493C15.1082 4.66187 14.7979 4.59844 14.4844 4.59844C14.1709 4.59844 13.8606 4.66187 13.5722 4.78493C13.2838 4.90798 13.0233 5.08811 12.8063 5.31447C12.5894 5.54083 12.4205 5.80875 12.3098 6.1021C12.1991 6.39544 12.1489 6.70815 12.1622 7.02141C12.1601 7.05908 12.1601 7.09683 12.1622 7.13449H2.85645L4.20499 1.54352Z" fill="#FD7533" stroke="#5A595C" stroke-width="0.1"/>
</svg>
