<svg width="19" height="19" viewBox="0 0 19 19" fill="none" xmlns="http://www.w3.org/2000/svg">
<path fill-rule="evenodd" clip-rule="evenodd" d="M0.163086 0.287109L5.2727 0.311663L5.266 1.69584L2.53742 1.68267L7.27961 6.42508L6.30103 7.40365L1.55862 2.66147L1.57179 5.39005L0.187616 5.39675L0.163086 0.287109ZM18.1631 0.287109L18.1386 5.39672L16.7544 5.39003L16.7676 2.66145L12.0252 7.40363L11.0466 6.42506L15.789 1.68265L13.0602 1.69581L13.0535 0.31164L18.1631 0.287109ZM12.0254 11.1706L16.7678 15.913L16.7546 13.1842L18.1388 13.1775L18.1634 18.2871L13.0538 18.2625L13.0605 16.8784L15.7893 16.8915L11.0469 12.1491L12.0254 11.1706ZM7.27985 12.1491L2.53766 16.8916L5.26624 16.8784L5.27294 18.2626L0.163326 18.2871L0.187879 13.1775L1.57205 13.1842L1.55888 15.913L6.3013 11.1706L7.27985 12.1491Z" fill="#FD7533"/>
</svg>
