<svg width="18" height="19" viewBox="0 0 18 19" fill="none" xmlns="http://www.w3.org/2000/svg">
<path fill-rule="evenodd" clip-rule="evenodd" d="M11.6842 1.11505C11.1936 0.460874 10.5394 0.297331 10.0488 0.297331C9.31284 0.297331 8.49513 0.70616 8.0045 1.85096C8.0045 1.93274 7.84097 2.17808 7.84097 2.34162V3.32284C7.59565 3.40462 7.59564 3.64996 7.59564 3.8135C7.59564 4.05882 7.75918 4.38592 8.0045 4.38592H12.0931C12.3384 4.22237 12.4202 4.05882 12.4202 3.8135C12.4202 3.64996 12.3384 3.32284 12.1749 3.32284C12.0931 2.34158 12.0931 2.34159 12.0931 2.25982C12.0931 2.09628 12.7473 1.36035 12.9108 1.36035C13.1561 1.27858 13.565 1.36035 13.6468 1.36035C13.7285 1.36035 14.0556 1.27858 14.3009 1.36035C14.7098 1.36035 15.2822 1.93275 15.2822 2.42338V9.70108H2.19872C1.29923 9.78285 0.808594 10.6823 0.808594 11.3365C0.808594 11.9089 1.13569 12.7266 1.78986 12.9719V14.1167C1.87164 15.0162 2.28048 16.0792 3.17997 16.8152C3.6706 17.0605 4.243 17.3058 4.73363 17.3058C4.8154 17.3058 4.97894 17.3058 5.14248 17.3058C5.14248 17.7147 5.22426 18.2871 5.63312 18.2871C6.12375 18.2871 6.12376 17.7965 6.12376 17.3058H11.8478C11.8478 17.6329 11.8478 18.2871 12.3384 18.2871C12.829 18.2871 12.9108 17.7147 12.829 17.3058C12.9108 17.3058 13.0744 17.3058 13.2379 17.3058C14.628 17.3058 16.0181 15.7522 16.0999 14.6891C16.0999 14.5256 16.1817 14.2803 16.1817 14.1985V12.9719C16.9176 12.7266 17.1629 11.9089 17.1629 11.3365C17.1629 10.8459 16.9176 10.0281 16.1817 9.78283V2.34162C15.7728 0.297331 14.7098 0.297331 13.6468 0.297331C12.9108 0.297331 12.4202 0.133787 11.6842 1.11505ZM8.82221 2.42338V3.32284H11.1936V2.50513C11.0301 1.76918 10.5394 1.36035 10.0488 1.36035C9.47639 1.36035 8.82221 1.85097 8.82221 2.42338ZM11.5207 5.93955C11.5207 6.26664 11.8478 6.43021 12.0113 6.43021C12.3384 6.43021 12.4202 6.18486 12.4202 5.93955C12.4202 5.61246 12.1749 5.44894 12.0113 5.44894C11.6842 5.44894 11.5207 5.69423 11.5207 5.93955ZM9.63993 5.93955C9.63993 6.26664 9.88525 6.43021 10.1306 6.43021C10.4577 6.43021 10.5394 6.18486 10.5394 5.93955C10.5394 5.61246 10.2941 5.44894 10.1306 5.44894C9.80348 5.44894 9.63993 5.69423 9.63993 5.93955ZM7.67741 5.93955C7.67741 6.26664 8.00451 6.43021 8.16805 6.43021C8.49514 6.43021 8.57691 6.18486 8.57691 5.93955C8.57691 5.61246 8.33159 5.44894 8.16805 5.44894C7.84096 5.44894 7.67741 5.69423 7.67741 5.93955ZM11.5207 8.06564C11.5207 8.39273 11.8478 8.55625 12.0113 8.55625C12.3384 8.55625 12.4202 8.22919 12.4202 8.06564C12.4202 7.73856 12.1749 7.57498 12.0113 7.57498C11.6842 7.57498 11.5207 7.82033 11.5207 8.06564ZM9.63993 8.06564C9.63993 8.39273 9.88525 8.55625 10.1306 8.55625C10.4577 8.55625 10.5394 8.22919 10.5394 8.06564C10.5394 7.73856 10.2941 7.57498 10.1306 7.57498C9.80348 7.57498 9.63993 7.82033 9.63993 8.06564ZM7.67741 8.06564C7.67741 8.39273 8.00451 8.55625 8.16805 8.55625C8.49514 8.55625 8.57691 8.22919 8.57691 8.06564C8.57691 7.73856 8.33159 7.57498 8.16805 7.57498C7.84096 7.57498 7.67741 7.82033 7.67741 8.06564ZM2.36225 10.6823C1.95339 10.7641 1.78986 11.0912 1.78986 11.3365C1.78986 11.5818 1.95339 11.9907 2.28047 11.9907H15.6911C16.0181 11.9907 16.1817 11.5818 16.1817 11.3365C16.1817 11.0912 16.0181 10.6823 15.6911 10.6823H2.36225ZM2.68933 13.1355V14.1167C2.77111 15.3433 3.91591 16.2428 4.8154 16.2428H13.1561C14.2192 16.2428 15.2004 15.098 15.2004 14.1167V13.1355H2.68933Z" fill="#FD7533"/>
</svg>
